<svg xmlns="http://www.w3.org/2000/svg" viewBox="0 0 800 600">
  <defs>
    <linearGradient id="bgm" x1="0%" y1="0%" x2="100%" y2="100%">
      <stop offset="0%" style="stop-color:#059669"/>
      <stop offset="100%" style="stop-color:#064e3b"/>
    </linearGradient>
    <pattern id="pm" x="0" y="0" width="60" height="60" patternUnits="userSpaceOnUse">
      <path d="M30 0L60 30L30 60L0 30Z" fill="none" stroke="rgba(255,255,255,0.07)" stroke-width="0.8"/>
    </pattern>
  </defs>
  <rect width="800" height="600" fill="url(#bgm)"/>
  <rect width="800" height="600" fill="url(#pm)"/>
  <g transform="translate(400,250)" fill="white" opacity="0.12">
    <path d="M-60-70 Q0-130 60-70 L60 40 Q60 60 40 60 L-40 60 Q-60 60 -60 40Z"/>
    <rect x="-45" y="-40" width="90" height="8" rx="4"/>
    <rect x="-35" y="-25" width="70" height="6" rx="3"/>
    <rect x="-40" y="-10" width="80" height="6" rx="3"/>
    <rect x="-30" y="5" width="60" height="6" rx="3"/>
    <rect x="-40" y="20" width="80" height="6" rx="3"/>
    <circle cx="-20" cy="-55" r="8"/>
    <circle cx="20" cy="-55" r="8"/>
  </g>
  <text x="400" y="400" text-anchor="middle" font-family="serif" font-size="24" fill="rgba(52,211,153,0.4)" font-style="italic">التّعلُّم</text>
</svg>
