<svg xmlns="http://www.w3.org/2000/svg" viewBox="0 0 800 600">
  <defs>
    <linearGradient id="bgw" x1="0%" y1="0%" x2="100%" y2="100%">
      <stop offset="0%" style="stop-color:#b45309"/>
      <stop offset="100%" style="stop-color:#78350f"/>
    </linearGradient>
    <pattern id="pw" x="0" y="0" width="70" height="70" patternUnits="userSpaceOnUse">
      <circle cx="35" cy="35" r="25" fill="none" stroke="rgba(255,255,255,0.06)" stroke-width="0.8"/>
    </pattern>
  </defs>
  <rect width="800" height="600" fill="url(#bgw)"/>
  <rect width="800" height="600" fill="url(#pw)"/>
  <g transform="translate(400,220)" fill="white" opacity="0.12">
    <!-- Award ribbon -->
    <rect x="-40" y="-80" width="80" height="100" rx="5"/>
    <circle cx="0" cy="-80" r="45"/>
    <polygon points="-40,20 -60,80 -20,50" />
    <polygon points="40,20 60,80 20,50" />
    <text x="0" y="-70" text-anchor="middle" font-family="serif" font-size="40" fill="rgba(251,191,36,0.6)">★</text>
  </g>
  <g transform="translate(400,370)" fill="white" opacity="0.08">
    <circle cx="-80" cy="0" r="20"/><rect x="-93" y="20" width="26" height="55" rx="8"/>
    <circle cx="-20" cy="-5" r="22"/><rect x="-35" y="17" width="30" height="60" rx="8"/>
    <circle cx="45" cy="0" r="20"/><rect x="32" y="20" width="26" height="55" rx="8"/>
    <circle cx="110" cy="-5" r="22"/><rect x="95" y="17" width="30" height="60" rx="8"/>
  </g>
  <text x="400" y="500" text-anchor="middle" font-family="serif" font-size="22" fill="rgba(253,230,138,0.5)" font-style="italic">التَّخَرُّج</text>
</svg>
