<svg width="512" height="512" viewBox="0 0 512 512" xmlns="http://www.w3.org/2000/svg">
  <defs>
    <linearGradient id="emerald" x1="0%" y1="0%" x2="100%" y2="100%">
      <stop offset="0%" stop-color="#0d9488" />
      <stop offset="100%" stop-color="#065f5b" />
    </linearGradient>
    <linearGradient id="gold" x1="0%" y1="0%" x2="100%" y2="100%">
      <stop offset="0%" stop-color="#d4af37" />
      <stop offset="100%" stop-color="#b4941f" />
    </linearGradient>
  </defs>

  <!-- Background Circle -->
  <circle cx="256" cy="256" r="240" fill="url(#emerald)" />
  
  <!-- Outer Ring -->
  <circle cx="256" cy="256" r="210" fill="none" stroke="url(#gold)" stroke-width="12" />

  <!-- Quran Stand / Book Element -->
  <path d="M120 300c0 0 30-40 136-40 106 0 136 40 136 40v80c0 0-30-40-136-40-106 0-136 40-136 40v-80z" fill="#ffffff" opacity="0.95" />
  
  <!-- Quran Pages Details -->
  <path d="M120 300c40-20 80-20 136 0" stroke="#0d9488" stroke-width="3" fill="none" opacity="0.3" transform="translate(0, 10)" />
  <path d="M392 300c-40-20-80-20-136 0" stroke="#0d9488" stroke-width="3" fill="none" opacity="0.3" transform="translate(0, 10)" />

  <!-- Mosque Dome Silhouette -->
  <path d="M256 100c-60 0-100 50-100 110v50h200v-50c0-60-40-110-100-110z" fill="url(#gold)" />
  <circle cx="256" cy="90" r="10" fill="url(#gold)" />
  <rect x="248" y="70" width="16" height="20" fill="url(#gold)" />

  <!-- Crescent Moon -->
  <path d="M400 100a40 40 0 1 1-20 75 40 40 0 0 0 20-75z" fill="#ffffff" opacity="0.8" />

  <!-- Text -->
  <text x="256" y="420" text-anchor="middle" fill="#ffffff" font-family="Segoe UI, Arial, sans-serif" font-weight="bold" font-size="36" letter-spacing="2">RUMAH QURAN</text>
  <text x="256" y="460" text-anchor="middle" fill="#d4af37" font-family="Segoe UI, Arial, sans-serif" font-weight="bold" font-size="28" letter-spacing="1">SYABABUL KHAIR</text>
</svg>
