<svg xmlns="http://www.w3.org/2000/svg" viewBox="0 0 800 600">
  <defs>
    <linearGradient id="bg1" x1="0%" y1="0%" x2="100%" y2="100%">
      <stop offset="0%" style="stop-color:#0d9488"/>
      <stop offset="100%" style="stop-color:#065f5b"/>
    </linearGradient>
    <pattern id="p1" x="0" y="0" width="80" height="80" patternUnits="userSpaceOnUse">
      <path d="M40 0L80 40L40 80L0 40Z" fill="none" stroke="rgba(255,255,255,0.08)" stroke-width="1"/>
    </pattern>
  </defs>
  <rect width="800" height="600" fill="url(#bg1)"/>
  <rect width="800" height="600" fill="url(#p1)"/>
  <g transform="translate(400,260)" fill="white" opacity="0.15">
    <path d="M0-100 Q60-100 60-40 L60 60 Q60 80 40 80 L-40 80 Q-60 80 -60 60 L-60-40 Q-60-100 0-100Z"/>
    <rect x="-8" y="-80" width="16" height="50" rx="4"/>
    <rect x="-30" y="-40" width="60" height="8" rx="4"/>
    <rect x="-25" y="-25" width="50" height="6" rx="3"/>
    <rect x="-20" y="-12" width="40" height="6" rx="3"/>
    <rect x="-25" y="5" width="50" height="6" rx="3"/>
    <rect x="-20" y="20" width="40" height="6" rx="3"/>
    <rect x="-25" y="35" width="50" height="6" rx="3"/>
  </g>
  <text x="400" y="420" text-anchor="middle" font-family="serif" font-size="28" fill="rgba(251,191,36,0.5)" font-style="italic">بِسْمِ اللَّه</text>
  <g fill="rgba(251,191,36,0.2)">
    <circle cx="150" cy="100" r="4"/>
    <circle cx="650" cy="80" r="3"/>
    <circle cx="100" cy="500" r="3"/>
    <circle cx="700" cy="480" r="4"/>
  </g>
</svg>
