<svg xmlns="http://www.w3.org/2000/svg" viewBox="0 0 800 600">
  <defs>
    <linearGradient id="bg4" x1="0%" y1="0%" x2="100%" y2="100%">
      <stop offset="0%" style="stop-color:#d4af37"/>
      <stop offset="100%" style="stop-color:#92700c"/>
    </linearGradient>
    <pattern id="p4" x="0" y="0" width="80" height="80" patternUnits="userSpaceOnUse">
      <path d="M0 40 L40 0 L80 40 L40 80Z" fill="none" stroke="rgba(255,255,255,0.1)" stroke-width="1"/>
      <rect x="35" y="35" width="10" height="10" fill="none" stroke="rgba(255,255,255,0.06)" stroke-width="1"/>
    </pattern>
  </defs>
  <rect width="800" height="600" fill="url(#bg4)"/>
  <rect width="800" height="600" fill="url(#p4)"/>
  <!-- Mosque -->
  <g transform="translate(400,270)" fill="white" opacity="0.15">
    <ellipse cx="0" cy="-50" rx="120" ry="90"/>
    <rect x="-120" y="-50" width="240" height="130"/>
    <circle cx="0" cy="-155" r="18"/>
    <circle cx="8" cy="-158" r="15" fill="#92700c"/>
    <rect x="-4" y="-180" width="8" height="15"/>
    <rect x="-170" y="-120" width="28" height="200"/>
    <polygon points="-170,-120 -156,-160 -142,-120"/>
    <rect x="142" y="-120" width="28" height="200"/>
    <polygon points="142,-120 156,-160 170,-120"/>
    <ellipse cx="-50" cy="10" rx="18" ry="30" fill="#92700c" opacity="0.4"/>
    <ellipse cx="0" cy="10" rx="22" ry="35" fill="#92700c" opacity="0.4"/>
    <ellipse cx="50" cy="10" rx="18" ry="30" fill="#92700c" opacity="0.4"/>
  </g>
  <!-- Large group silhouette row -->
  <g transform="translate(400,450)" fill="white" opacity="0.08">
    <circle cx="-200" cy="-15" r="14"/><rect x="-212" y="-1" width="24" height="45" rx="6"/>
    <circle cx="-160" cy="-18" r="16"/><rect x="-174" y="-2" width="28" height="50" rx="6"/>
    <circle cx="-115" cy="-15" r="14"/><rect x="-127" y="-1" width="24" height="45" rx="6"/>
    <circle cx="-70" cy="-18" r="16"/><rect x="-84" y="-2" width="28" height="50" rx="6"/>
    <circle cx="-25" cy="-15" r="14"/><rect x="-37" y="-1" width="24" height="45" rx="6"/>
    <circle cx="25" cy="-18" r="16"/><rect x="11" y="-2" width="28" height="50" rx="6"/>
    <circle cx="70" cy="-15" r="14"/><rect x="58" y="-1" width="24" height="45" rx="6"/>
    <circle cx="115" cy="-18" r="16"/><rect x="101" y="-2" width="28" height="50" rx="6"/>
    <circle cx="160" cy="-15" r="14"/><rect x="148" y="-1" width="24" height="45" rx="6"/>
    <circle cx="200" cy="-18" r="16"/><rect x="186" y="-2" width="28" height="50" rx="6"/>
  </g>
  <text x="400" y="550" text-anchor="middle" font-family="serif" font-size="22" fill="rgba(255,255,255,0.4)" font-style="italic">شبابُ الخَير</text>
</svg>
