<svg xmlns="http://www.w3.org/2000/svg" viewBox="0 0 800 600">
  <defs>
    <linearGradient id="bg2" x1="0%" y1="0%" x2="100%" y2="100%">
      <stop offset="0%" style="stop-color:#7c3aed"/>
      <stop offset="100%" style="stop-color:#4c1d95"/>
    </linearGradient>
    <pattern id="p2" x="0" y="0" width="60" height="60" patternUnits="userSpaceOnUse">
      <circle cx="30" cy="30" r="20" fill="none" stroke="rgba(255,255,255,0.06)" stroke-width="1"/>
      <circle cx="30" cy="30" r="10" fill="none" stroke="rgba(255,255,255,0.04)" stroke-width="1"/>
    </pattern>
  </defs>
  <rect width="800" height="600" fill="url(#bg2)"/>
  <rect width="800" height="600" fill="url(#p2)"/>
  <g transform="translate(400,250)" opacity="0.15" fill="white">
    <circle cx="0" cy="0" r="80"/>
    <circle cx="-40" cy="-30" r="50"/>
    <circle cx="40" cy="-30" r="50"/>
    <circle cx="0" cy="30" r="50"/>
    <path d="M-20-60 L0-90 L20-60" fill="rgba(251,191,36,0.3)" stroke="rgba(251,191,36,0.3)" stroke-width="2"/>
    <rect x="-3" y="-100" width="6" height="20" fill="rgba(251,191,36,0.3)"/>
  </g>
  <g transform="translate(400,280)" opacity="0.12" fill="white">
    <rect x="-100" y="30" width="200" height="10" rx="5"/>
    <rect x="-80" y="50" width="160" height="8" rx="4"/>
    <rect x="-60" y="68" width="120" height="8" rx="4"/>
  </g>
  <text x="400" y="420" text-anchor="middle" font-family="serif" font-size="24" fill="rgba(251,191,36,0.4)" font-style="italic">المجلس</text>
  <g fill="rgba(167,139,250,0.3)">
    <circle cx="120" cy="80" r="3"/>
    <circle cx="680" cy="120" r="4"/>
    <circle cx="200" cy="500" r="3"/>
    <circle cx="600" cy="520" r="2"/>
  </g>
</svg>
